#!OML:ASF H:\Terrain\Patient Classification 1\Animal1\Tuesday\Animal1.ASF
:FULLY-SPECIFIED
:DEGREES
2241
root 1.64932 16.5959 -8.959 -172.19 -152.892 -179.278
lowerback -5.28984 0.052286 3.20552
upperback -0.883544 -0.140334 0.976939
thorax 2.05132 -0.0538095 -0.803594
lowerneck 9.79155 11.6291 -1.02864
upperneck -3.55606 15.3619 -0.194658
head -2.88268 7.64799 -0.737043
rclavicle 4.87022e-015 1.19271e-014
rhumerus -32.6366 -8.37405 -81.7417
rradius 10.3003
rwrist -10.3554
rhand -4.62189 14.9026
rfingers 7.12502
rthumb 21.1567 -13.963
lclavicle 4.87022e-015 1.19271e-014
lhumerus -41.382 36.654 62.7655
lradius 8.18397
lwrist -57.5795
lhand 35.9257 30.667
lfingers 7.12502
lthumb 58.9406 45.5133
rfemur -17.749 26.6176 19.3857
rtibia 16.3851
rfoot -36.6962 -39.8308
rtoes 36.8109
lfemur -20.1999 -14.5136 -22.734
ltibia 21.7572
lfoot -10.5306 22.3098
ltoes 18.0506
2242
root 1.63866 16.5882 -8.97579 -171.954 -154.429 -179.61
lowerback -5.31445 -0.019147 3.5124
upperback -0.840497 -0.258913 1.13077
thorax 2.10436 -0.1101 -0.825536
lowerneck 9.41022 11.5741 -1.02775
upperneck -3.14469 15.2957 -0.099678
head -2.67939 7.61607 -0.657864
rclavicle 4.68635e-014 7.95139e-016
rhumerus -32.7202 -11.4745 -79.8897
rradius 9.6346
rwrist -7.11364
rhand -4.4721 15.7429
rfingers 7.12502
rthumb 21.3006 -13.1065
lclavicle 4.68635e-014 7.95139e-016
lhumerus -40.7981 35.8827 63.8225
lradius 8.10616
lwrist -55.8934
lhand 35.2306 30.5111
lfingers 7.12502
lthumb 58.3379 45.9255
rfemur -17.5782 27.4802 19.6042
rtibia 16.1434
rfoot -41.0104 -39.0128
rtoes 41.3705
lfemur -20.818 -14.4391 -22.4131
ltibia 22.4201
lfoot -10.9635 21.8112
ltoes 21.8381
2243
root 1.62993 16.5844 -8.99327 -171.44 -155.994 -180.053
lowerback -5.45635 -0.066813 3.92536
upperback -0.955273 -0.355935 1.35511
thorax 2.0605 -0.158652 -0.832956
lowerneck 9.34201 11.544 -1.16939
upperneck -3.06287 15.2473 0.0382464
head -2.66294 7.58935 -0.584959
rclavicle -3.13086e-015 -1.59028e-015
rhumerus -32.9611 -14.6675 -78.0821
rradius 8.80554
rwrist -3.42939
rhand -3.88064 16.5507
rfingers 7.12502
rthumb 21.8686 -12.2335
lclavicle -3.13086e-015 -1.59028e-015
lhumerus -40.4664 35.0305 64.8495
lradius 8.21163
lwrist -54.1664
lhand 34.7126 30.8419
lfingers 7.12502
lthumb 57.8866 46.6647
rfemur -17.6656 28.3298 19.7907
rtibia 15.7652
rfoot -45.1002 -38.3185
rtoes 44.9485
lfemur -21.8303 -14.2853 -21.93
ltibia 23.1991
lfoot -10.996 21.8438
ltoes 23.7313
2244
root 1.62146 16.5795 -9.01628 -170.994 -157.486 -180.355
lowerback -5.5186 -0.0945328 4.15959
upperback -1.111 -0.410285 1.57444
thorax 1.93238 -0.189224 -0.742037
lowerneck 9.45054 11.4644 -1.40531
upperneck -3.2452 15.121 0.157024
head -2.77541 7.52343 -0.524562
rclavicle 3.53837e-014 2.3059e-014
rhumerus -33.5113 -17.7897 -76.0849
rradius 8.37829
rwrist 0.456691
rhand -4.2973 16.4246
rfingers 7.12502
rthumb 21.4684 -12.4058
lclavicle 3.53837e-014 2.3059e-014
lhumerus -40.3561 34.1068 65.8134
lradius 8.55322
lwrist -52.2793
lhand 34.9236 31.5059
lfingers 7.12502
lthumb 58.0706 47.1638
rfemur -17.8148 29.234 19.8281
rtibia 15.3662
rfoot -48.4824 -38.4145
rtoes 47.1195
lfemur -22.8459 -14.1482 -21.5689
ltibia 23.904
lfoot -10.8934 22.2341
ltoes 22.7246
2245
root 1.61145 16.5745 -9.03698 -170.879 -158.93 -180.494
lowerback -5.43313 -0.110872 4.22428
upperback -1.14058 -0.432824 1.7196
thorax 1.85381 -0.202078 -0.629917
lowerneck 9.37148 11.3201 -1.52418
upperneck -3.29588 14.9234 0.258333
head -2.79632 7.42338 -0.462633
rclavicle 8.79125e-014 -3.10104e-014
rhumerus -34.3031 -20.8624 -73.8687
rradius 8.31747
rwrist 4.38474
rhand -3.81469 15.6387
rfingers 7.12502
rthumb 21.9319 -13.1381
lclavicle 8.79125e-014 -3.10104e-014
lhumerus -40.2631 33.057 66.6827
lradius 9.00763
lwrist -50.187
lhand 34.6978 31.2312
lfingers 7.12502
lthumb 57.8736 47.0655
rfemur -17.7569 30.4897 19.7973
rtibia 15.186
rfoot -52.2048 -38.3528
rtoes 48.8209
lfemur -23.3425 -14.0188 -21.4731
ltibia 24.3349
lfoot -11.5576 22.7521
ltoes 24.1336
2246
root 1.60231 16.5812 -9.04492 -170.996 -160.294 -180.17
lowerback -5.39635 -0.120089 3.93289
upperback -1.13272 -0.424514 1.66163
thorax 1.84347 -0.198872 -0.525978
lowerneck 9.25532 11.1664 -1.54609
upperneck -3.35845 14.7267 0.372073
head -2.80705 7.32223 -0.408976
rclavicle -2.5842e-015 -2.94201e-014
rhumerus -35.2952 -23.9589 -71.5734
rradius 8.27752
rwrist 8.51929
rhand -2.40881 15.1776
rfingers 7.12502
rthumb 23.2812 -13.4348
lclavicle -2.5842e-015 -2.94201e-014
lhumerus -40.111 31.8833 67.4277
lradius 9.36947
lwrist -48.0786
lhand 34.4435 30.686
lfingers 7.12502
lthumb 57.6514 46.7162
rfemur -17.635 31.6239 19.3475
rtibia 15.2034
rfoot -55.7408 -38.2649
rtoes 49.6965
lfemur -23.4289 -13.8108 -22.0185
ltibia 24.5002
lfoot -12.336 23.6204
ltoes 26.9744
